<svg   id="chart"   width="1000"   height="500"   viewBox="0 0 1000 500"   xmlns="http://www.w3.org/2000/svg" >      <path d="M 0,494.3831737847084 C 25,485.1562313169199 75,465.02749841923776 125,448.2484614457659 C 175,431.469424472294 200,430.9982369550115 250,410.48798891734896 C 300,389.97774087968645 325,354.68083413686315 375,345.69722125745324 C 425,336.7136083780433 450,370.91733711192427 500,365.5699245202993 C 550,360.22251192867435 575,343.51705447106735 625,318.96015829932855 C 675,294.40326212758976 700,290.54046860823684 750,242.78544366160529 C 800,195.0304187149737 825,114.99031558336134 875,80.18503356617072 C 925,45.3797515489801 975,71.04423357375592 1000,68.75903357565221,L 1000 500,L 0 500Z" fill="#FFF4CF" />   <path d="M 0,494.3831737847084 C 25,485.1562313169199 75,465.02749841923776 125,448.2484614457659 C 175,431.469424472294 200,430.9982369550115 250,410.48798891734896 C 300,389.97774087968645 325,354.68083413686315 375,345.69722125745324 C 425,336.7136083780433 450,370.91733711192427 500,365.5699245202993 C 550,360.22251192867435 575,343.51705447106735 625,318.96015829932855 C 675,294.40326212758976 700,290.54046860823684 750,242.78544366160529 C 800,195.0304187149737 825,114.99031558336134 875,80.18503356617072 C 925,45.3797515489801 975,71.04423357375592 1000,68.75903357565221" fill="none" stroke="#F7D35D" stroke-width="4px" />   <g>      </g> </svg>